<svg xmlns="http://www.w3.org/2000/svg" width="1024" height="1024" style="shape-rendering:geometricPrecision;text-rendering:geometricPrecision;image-rendering:optimizeQuality;fill-rule:evenodd;clip-rule:evenodd">
  <path style="opacity:1" fill="#ffffff" d="M489.5-.5h44c165.482 10.971 297.316 82.638 395.5 215 57.688 82.561 89.19 174.227 94.5 275v44c-9.31 147.436-68.972 269.936-179 367.5-89.831 75.224-193.498 116.06-311 122.5h-44c-147.436-9.31-269.936-68.972-367.5-179C46.776 754.669 5.943 651.002-.5 533.5v-44C10.471 324.018 82.138 192.184 214.5 94c82.561-57.688 174.227-89.188 275-94.5Zm-120 214c146.667-.167 293.334 0 440 .5 1.333 1.333 1.333 2.667 0 4a70108.859 70108.859 0 0 1-423 72.5c3.58-27.344-2.42-52.344-18-75 .363-.683.696-1.35 1-2Zm-54 1c5.694.512 10.694 2.679 15 6.5 23.652 20.295 31.652 45.628 24 76 4.086 21.896 17.086 29.896 39 24a53789.737 53789.737 0 0 1 365-63.5c1.6.051 3.1.384 4.5 1 .667 165 .667 330 0 495-6.722 29.395-24.889 46.229-54.5 50.5-30.423-19.24-41.757-46.574-34-82-1.265-16.099-9.932-24.599-26-25.5a146248.453 146248.453 0 0 0-373 64.5 40.914 40.914 0 0 1-9 .5c-.167-166 0-332 .5-498 6.321-26.154 22.488-42.487 48.5-49Zm322 514c1.967-.239 3.801.094 5.5 1-3.385 26.061 2.281 50.061 17 72a8.43 8.43 0 0 1 .5 4c-146.667.167-293.334 0-440-.5-1.333-1.333-1.333-2.667 0-4a538941.39 538941.39 0 0 0 417-72.5Z"/>
  <path style="opacity:1" fill="#ffffff" d="M708.5 311.5c3.53-.511 6.696.156 9.5 2 .832 130.57.666 261.07-.5 391.5-1.1.432-1.767-.068-2-1.5-.993-14.172-6.327-26.339-16-36.5-6.808-5.236-14.475-8.569-23-10-22.322-3.215-44.655-3.215-67 0a74997.577 74997.577 0 0 0-288 50c-3.26.784-6.427.617-9.5-.5-.833-131.001-.667-262.001.5-393a735.637 735.637 0 0 0 7.5 25c7.128 12.827 17.961 20.66 32.5 23.5 22.325 3.215 44.658 3.215 67 0a32568.592 32568.592 0 0 0 289-50.5Z"/>
</svg>
