<?xml version="1.0" encoding="UTF-8"?>
<!DOCTYPE svg PUBLIC "-//W3C//DTD SVG 1.1//EN" "http://www.w3.org/Graphics/SVG/1.1/DTD/svg11.dtd">
<svg xmlns="http://www.w3.org/2000/svg" version="1.1" width="800px" height="800px" style="shape-rendering:geometricPrecision; text-rendering:geometricPrecision; image-rendering:optimizeQuality; fill-rule:evenodd; clip-rule:evenodd" xmlns:xlink="http://www.w3.org/1999/xlink">
<g><path style="opacity:0.996" fill="#cb8500" d="M 503.5,442.5 C 499.724,444.943 497.057,448.276 495.5,452.5C 485.396,473.578 488.729,492.411 505.5,509C 511.648,514.116 518.648,517.282 526.5,518.5C 529.146,519.164 531.979,519.498 535,519.5C 539.133,519.714 542.966,519.048 546.5,517.5C 554.464,515.183 561.131,510.85 566.5,504.5C 569.709,501.772 572.209,498.439 574,494.5C 575.333,489.833 576.667,485.167 578,480.5C 578.667,475.5 578.667,470.5 578,465.5C 577.634,463.548 576.801,461.882 575.5,460.5C 589.978,459.438 603.978,456.271 617.5,451C 637.955,441.185 658.289,431.185 678.5,421C 689.167,421.667 699.833,421.667 710.5,421C 708.952,455.37 701.452,488.537 688,520.5C 683.451,530.257 678.951,539.924 674.5,549.5C 602.181,653.947 502.181,701.447 374.5,692C 262.328,675.774 180.162,617.608 128,517.5C 94.6073,445.511 88.2739,371.178 109,294.5C 112.746,283.094 116.579,271.761 120.5,260.5C 163.102,178.824 228.769,124.99 317.5,99C 327.369,96.0298 337.369,94.0298 347.5,93C 348.894,94.7395 349.561,96.7395 349.5,99C 343.44,139.277 353.607,174.777 380,205.5C 386.368,211.926 393.202,217.759 400.5,223C 414.606,239.771 431.606,252.771 451.5,262C 454.333,264.167 457.167,266.333 460,268.5C 460.667,269.833 460.667,271.167 460,272.5C 436.634,317.815 438.301,362.149 465,405.5C 475.446,420.449 488.279,432.782 503.5,442.5 Z"/></g>
<g><path style="opacity:0.984" fill="#cb8500" d="M 515.5,180.5 C 494.909,198.216 472.909,200.049 449.5,186C 427.711,166.785 423.044,143.952 435.5,117.5C 456.537,97.7591 479.537,95.2591 504.5,110C 526.712,130.566 530.379,154.066 515.5,180.5 Z"/></g>
<g><path style="opacity:0.869" fill="#986500" d="M 435.5,117.5 C 423.044,143.952 427.711,166.785 449.5,186C 472.909,200.049 494.909,198.216 515.5,180.5C 505.814,194.849 492.147,202.182 474.5,202.5C 445.458,199.745 428.291,184.078 423,155.5C 422.168,144.161 424.501,133.494 430,123.5C 431.331,121.004 433.164,119.004 435.5,117.5 Z"/></g>
<g><path style="opacity:0.994" fill="#cb8500" d="M 721.5,223.5 C 721.167,223.5 720.833,223.5 720.5,223.5C 718.997,219.659 717.664,215.659 716.5,211.5C 714.866,210.839 713.033,210.506 711,210.5C 707.85,210.36 705.017,211.027 702.5,212.5C 697.268,213.887 692.602,216.387 688.5,220C 685.577,222.416 683.243,225.25 681.5,228.5C 676.914,234.267 674.914,240.934 675.5,248.5C 676.832,271.5 688.832,285.167 711.5,289.5C 712.739,289.058 713.739,288.391 714.5,287.5C 714.833,287.5 715.167,287.5 715.5,287.5C 712.403,294.031 709.07,300.364 705.5,306.5C 672.429,338.882 634.096,347.049 590.5,331C 548.449,310.422 528.282,276.589 530,229.5C 531.448,214.658 535.615,200.658 542.5,187.5C 574.247,149.473 613.914,137.973 661.5,153C 693.282,166.605 713.282,190.105 721.5,223.5 Z"/></g>
<g><path style="opacity:0.898" fill="#986500" d="M 542.5,187.5 C 535.615,200.658 531.448,214.658 530,229.5C 528.282,276.589 548.449,310.422 590.5,331C 634.096,347.049 672.429,338.882 705.5,306.5C 689.334,329.102 667.334,342.602 639.5,347C 589.447,351.397 553.28,331.23 531,286.5C 518.506,255.401 520.173,225.067 536,195.5C 537.946,192.58 540.113,189.913 542.5,187.5 Z"/></g>
<g><path style="opacity:1" fill="#5e3d02" d="M 716.5,211.5 C 711.797,211.437 707.13,211.771 702.5,212.5C 705.017,211.027 707.85,210.36 711,210.5C 713.033,210.506 714.866,210.839 716.5,211.5 Z"/></g>
<g><path style="opacity:1" fill="#332100" d="M 716.5,211.5 C 717.664,215.659 718.997,219.659 720.5,223.5C 724.655,244.909 722.655,265.576 714.5,285.5C 685.629,276.749 674.629,257.749 681.5,228.5C 683.243,225.25 685.577,222.416 688.5,220C 692.602,216.387 697.268,213.887 702.5,212.5C 707.13,211.771 711.797,211.437 716.5,211.5 Z"/></g>
<g><path style="opacity:1" fill="#332100" d="M 290.5,276.5 C 276.178,283.457 263.678,281.124 253,269.5C 246.9,258.513 247.066,247.679 253.5,237C 253.272,236.601 252.938,236.435 252.5,236.5C 253.29,235.206 254.29,234.039 255.5,233C 265.372,228.808 275.372,228.475 285.5,232C 296.875,238.588 301.375,248.421 299,261.5C 297.662,267.528 294.829,272.528 290.5,276.5 Z"/></g>
<g><path style="opacity:1" fill="#1d1300" d="M 681.5,228.5 C 674.629,257.749 685.629,276.749 714.5,285.5C 714.5,286.167 714.5,286.833 714.5,287.5C 713.739,288.391 712.739,289.058 711.5,289.5C 688.832,285.167 676.832,271.5 675.5,248.5C 674.914,240.934 676.914,234.267 681.5,228.5 Z"/></g>
<g><path style="opacity:1" fill="#1d1300" d="M 252.5,236.5 C 252.938,236.435 253.272,236.601 253.5,237C 247.066,247.679 246.9,258.513 253,269.5C 263.678,281.124 276.178,283.457 290.5,276.5C 288.572,278.474 286.239,279.974 283.5,281C 260.61,289.389 247.276,281.556 243.5,257.5C 242.987,248.873 245.987,241.873 252.5,236.5 Z"/></g>
<g><path style="opacity:0.346" fill="#b77800" d="M 720.5,223.5 C 720.833,223.5 721.167,223.5 721.5,223.5C 726.919,245.427 724.919,266.76 715.5,287.5C 715.167,287.5 714.833,287.5 714.5,287.5C 714.5,286.833 714.5,286.167 714.5,285.5C 722.655,265.576 724.655,244.909 720.5,223.5 Z"/></g>
<g><path style="opacity:0.969" fill="#996500" d="M 120.5,260.5 C 116.579,271.761 112.746,283.094 109,294.5C 88.2739,371.178 94.6073,445.511 128,517.5C 180.162,617.608 262.328,675.774 374.5,692C 502.181,701.447 602.181,653.947 674.5,549.5C 628.391,632.057 559.058,684.224 466.5,706C 344.616,727.93 242.45,693.097 160,601.5C 92.0068,515.882 71.6735,419.882 99,313.5C 104.332,294.983 111.499,277.316 120.5,260.5 Z"/></g>
<g><path style="opacity:0.979" fill="#cb8500" d="M 586.5,416.5 C 569.58,430.577 551.58,432.077 532.5,421C 515.933,407.019 511.6,389.852 519.5,369.5C 535.398,352.622 553.732,349.455 574.5,360C 593.612,375.614 597.612,394.448 586.5,416.5 Z"/></g>
<g><path style="opacity:0.86" fill="#986500" d="M 519.5,369.5 C 511.6,389.852 515.933,407.019 532.5,421C 551.58,432.077 569.58,430.577 586.5,416.5C 583.738,422.43 579.405,426.93 573.5,430C 550.084,440.077 530.918,434.911 516,414.5C 508.728,400.805 508.728,387.139 516,373.5C 516.949,371.907 518.115,370.574 519.5,369.5 Z"/></g>
<g><path style="opacity:1" fill="#342100" d="M 503.5,442.5 C 525.711,455.386 549.711,461.386 575.5,460.5C 576.801,461.882 577.634,463.548 578,465.5C 578.667,470.5 578.667,475.5 578,480.5C 576.667,485.167 575.333,489.833 574,494.5C 572.209,498.439 569.709,501.772 566.5,504.5C 547.436,516.628 528.436,516.461 509.5,504C 494.41,489.462 489.744,472.295 495.5,452.5C 497.057,448.276 499.724,444.943 503.5,442.5 Z"/></g>
<g><path style="opacity:1" fill="#1c1300" d="M 495.5,452.5 C 489.744,472.295 494.41,489.462 509.5,504C 528.436,516.461 547.436,516.628 566.5,504.5C 561.131,510.85 554.464,515.183 546.5,517.5C 539.869,518.331 533.202,518.664 526.5,518.5C 518.648,517.282 511.648,514.116 505.5,509C 488.729,492.411 485.396,473.578 495.5,452.5 Z"/></g>
<g><path style="opacity:1" fill="#332100" d="M 356.5,595.5 C 329.818,613.249 303.484,612.749 277.5,594C 255.377,572.439 250.044,547.272 261.5,518.5C 262.684,515.139 264.517,512.139 267,509.5C 294.316,484.917 323.149,483.084 353.5,504C 374.913,523.652 380.747,547.152 371,574.5C 368.079,579.341 365.412,584.341 363,589.5C 360.963,591.706 358.797,593.706 356.5,595.5 Z"/></g>
<g><path style="opacity:1" fill="#915e00" d="M 546.5,517.5 C 542.966,519.048 539.133,519.714 535,519.5C 531.979,519.498 529.146,519.164 526.5,518.5C 533.202,518.664 539.869,518.331 546.5,517.5 Z"/></g>
<g><path style="opacity:1" fill="#1d1300" d="M 261.5,518.5 C 250.044,547.272 255.377,572.439 277.5,594C 303.484,612.749 329.818,613.249 356.5,595.5C 344.593,606.924 330.259,612.924 313.5,613.5C 278.572,610.741 258.072,592.075 252,557.5C 250.573,545.979 252.24,534.979 257,524.5C 257.792,521.894 259.292,519.894 261.5,518.5 Z"/></g>
</svg>
