<svg xmlns="http://www.w3.org/2000/svg" width="600" height="600" style="shape-rendering:geometricPrecision;text-rendering:geometricPrecision;image-rendering:optimizeQuality;fill-rule:evenodd;clip-rule:evenodd"><path style="opacity:.992" fill="#fefffe" d="M281.5 58.5c40.915-1.326 81.248 2.84 121 12.5 18.986 4.993 36.986 12.327 54 22 11.603 6.936 20.436 16.436 26.5 28.5 2.218 10.634.218 20.301-6 29-11.159 12.001-24.325 21.167-39.5 27.5-44.195 17.061-90.029 25.228-137.5 24.5-44.802.561-88.302-6.606-130.5-21.5-19.222-6.912-35.388-18.078-48.5-33.5-6.793-13.33-5.793-25.996 3-38 12.567-12.372 27.067-21.872 43.5-28.5 36.969-13.36 74.969-20.86 114-22.5Z"/><path style="opacity:.985" fill="#fefffe" d="M116.5 165.5c22.78 18.889 48.78 31.722 78 38.5 70.334 16.667 140.667 16.667 211 0a235.28 235.28 0 0 0 57-23 149.346 149.346 0 0 0 20-15.5 542.165 542.165 0 0 1 .5 57c-3.153 9.163-8.653 16.663-16.5 22.5-9.456 7.267-19.789 13.101-31 17.5-9.589-14.63-23.256-21.63-41-21-13.684-.499-25.184 4.168-34.5 14a245.587 245.587 0 0 1-17.5 28.5c-56.139 6.26-111.139.927-165-16-15.833-5.582-30.5-13.249-44-23-7.588-6.026-13.088-13.526-16.5-22.5-.5-18.997-.667-37.997-.5-57Z"/><path style="opacity:.982" fill="#fefffe" d="M116.5 250.5c25.225 20.269 53.891 33.769 86 40.5 42.05 9.388 84.55 12.555 127.5 9.5 1.5.167 2.333 1 2.5 2.5a1671.898 1671.898 0 0 1-39 67c-45.255.514-88.921-7.486-131-24-14.66-6.241-27.493-15.075-38.5-26.5a40.875 40.875 0 0 1-7-13c-.5-18.664-.667-37.33-.5-56Z"/><path style="opacity:.966" fill="#fefffe" d="M481.5 250.5c1.332 8.975 1.998 18.309 2 28l-.5 28c-1.89 6.55-5.39 12.05-10.5 16.5-1.867.711-3.367.211-4.5-1.5l-23-40a10.098 10.098 0 0 1-1.5-6 55.361 55.361 0 0 0 13-5.5l19-13a54.53 54.53 0 0 0 6-6.5Z"/><path style="opacity:.985" fill="#fefefe" d="M393.5 255.5c10.359.097 18.859 4.097 25.5 12a29166.875 29166.875 0 0 1 114 199c4.251 12.645 1.417 23.478-8.5 32.5-4.602 2.867-9.602 4.534-15 5-76.667.667-153.333.667-230 0-15.335-3.179-23.335-12.679-24-28.5a37.775 37.775 0 0 1 4.5-15 26953.195 26953.195 0 0 0 110-191c5.531-8.73 13.365-13.396 23.5-14Zm-15 51a302.635 302.635 0 0 1 34.5 1 2880.584 2880.584 0 0 1-3 109 20.431 20.431 0 0 1-1.5 5.5c-8.912.816-17.745.65-26.5-.5a2947.642 2947.642 0 0 1-4.5-102 91.576 91.576 0 0 1 1-13Zm11 134c18.676-1.823 27.176 6.51 25.5 25-5.439 11.302-14.272 15.469-26.5 12.5-12.625-6.091-16.125-15.591-10.5-28.5 3.045-4.094 6.878-7.094 11.5-9Z"/><path style="opacity:.983" fill="#fefffe" d="M117.5 334.5c20.281 17.644 43.615 29.811 70 36.5a427.623 427.623 0 0 0 95 15 3.943 3.943 0 0 1 1 2 2874.395 2874.395 0 0 1-36 62c-36.139-2.201-70.139-11.868-102-29-12.246-6.579-21.413-16.079-27.5-28.5-.5-19.33-.667-38.664-.5-58Z"/><path style="opacity:.977" fill="#fefffe" d="M117.5 418.5c14.379 12.865 30.712 22.699 49 29.5a424.702 424.702 0 0 0 75 19c-.026 7.08.474 14.247 1.5 21.5 3.675 18.342 14.842 28.175 33.5 29.5 48.67.167 97.337.667 146 1.5-19.292 7.657-39.292 12.823-60 15.5-59.113 8.401-117.447 4.735-175-11-20.619-5.643-39.286-14.976-56-28-5.689-5.347-10.189-11.514-13.5-18.5-.5-19.664-.667-39.331-.5-59Z"/></svg>